<?xml version="1.0" encoding="UTF-8"?>
<svg viewBox="0 0 400 400" xmlns="http://www.w3.org/2000/svg">
 <defs>
  <linearGradient id="b" x1="460" x2="456" y1="60.362" y2="440.36" gradientUnits="userSpaceOnUse">
   <stop offset="0"/>
   <stop stop-color="#797979" offset="1"/>
  </linearGradient>
  <linearGradient id="a" x2="0" y1="143.27" y2="397.82" gradientUnits="userSpaceOnUse">
   <stop stop-color="#fff" offset="0"/>
   <stop stop-color="#dadada" offset=".8056"/>
   <stop stop-color="#b5b5b5" offset="1"/>
  </linearGradient>
 </defs>
 <g transform="translate(-260 -52.362)">
  <path d="m306.75 52.362h306.49a46.753 36.843 0 0 1 46.753 36.843v326.31a46.753 36.843 0 0 1 -46.753 36.843h-306.49a46.753 36.843 0 0 1 -46.753 -36.843v-326.31a46.753 36.843 0 0 1 46.753 -36.843" fill="url(#b)"/>
  <g transform="translate(-5.4594 -17.365)">
   <path d="m416.36 147.16c-9.4843 0-17.045 9.8881-17.045 22.159v50.682c0 12.271 7.5611 22.159 17.045 22.159h98.977c9.4843 0 17.159-9.8881 17.159-22.159v-50.682c0-12.271-7.6748-22.159-17.159-22.159h-98.977zm19.432 29.773h60v10.114h-60v-10.114zm0 21.818h60v10.114h-60v-10.114zm30.341 54.205c-3.6364 0-7.2727 0.9091-9.0909 2.7273v18.182h-87.273c-7.2727 0-18.182 10.909-18.182 18.182v29.091c3.6364 3.6364 18.182 3.6364 21.818 0v-29.091h83.636v29.091c3.6364 3.6364 14.545 3.6364 18.182 0v-29.091h83.636v29.091h21.818l0.1134-28.523c-0.1296-7.9221-11.022-18.75-18.295-18.75h-87.273v-18.182c-1.8181-1.8182-5.4545-2.7273-9.0909-2.7273zm-134.55 84.886c-5.758 0-10.341 5.9593-10.341 13.409v30.795c0 7.4498 4.5829 13.523 10.341 13.523h60.114c5.758 0 10.341-6.0729 10.341-13.523v-30.795c0-7.4498-4.5829-13.409-10.341-13.409h-60.114zm105.45 0c-5.758 0-10.341 5.9593-10.341 13.409v30.795c0 7.4498 4.5829 13.523 10.341 13.523h60.114c5.758 0 10.341-6.0729 10.341-13.523v-30.795c0-7.4498-4.5829-13.409-10.341-13.409h-60.114zm105.45 0c-5.758 0-10.341 5.9593-10.341 13.409v30.795c0 7.4498 4.5829 13.523 10.341 13.523h60.114c5.758 0 10.341-6.0729 10.341-13.523v-30.795c0-7.4498-4.5829-13.409-10.341-13.409h-60.114z"/>
   <path d="m413.08 143.89c-9.4843 0-17.045 9.8882-17.045 22.159v50.682c0 12.271 7.5611 22.159 17.045 22.159h98.977c9.4843 0 17.159-9.8881 17.159-22.159v-50.682c0-12.271-7.6748-22.159-17.159-22.159h-98.977zm19.432 29.773h60v10.114h-60v-10.114zm0 21.818h60v10.114h-60v-10.114zm30.341 54.205c-3.6364 0-7.2727 0.90908-9.0909 2.7273v18.182h-87.273c-7.2727 0-18.182 10.909-18.182 18.182v29.091c3.6364 3.6364 18.182 3.6364 21.818 0v-29.091h83.636v29.091c3.6364 3.6364 14.545 3.6364 18.182 0v-29.091h83.636v29.091h21.818l0.1134-28.523c-0.1296-7.9221-11.022-18.75-18.295-18.75h-87.273v-18.182c-1.8182-1.8182-5.4546-2.7273-9.0909-2.7273zm-134.55 84.886c-5.758 0-10.341 5.9593-10.341 13.409v30.795c0 7.4498 4.5829 13.523 10.341 13.523h60.114c5.758 0 10.341-6.0729 10.341-13.523v-30.795c0-7.4498-4.5829-13.409-10.341-13.409h-60.114zm105.45 0c-5.758 0-10.341 5.9593-10.341 13.409v30.795c0 7.4498 4.5829 13.523 10.341 13.523h60.114c5.758 0 10.341-6.0729 10.341-13.523v-30.795c0-7.4498-4.5829-13.409-10.341-13.409h-60.114zm105.45 0c-5.758 0-10.341 5.9593-10.341 13.409v30.795c0 7.4498 4.5829 13.523 10.341 13.523h60.114c5.758 0 10.341-6.0729 10.341-13.523v-30.795c0-7.4498-4.5829-13.409-10.341-13.409h-60.114z" fill="url(#a)"/>
  </g>
 </g>
</svg>
